<svg width="985" height="467" viewBox="0 0 985 467" fill="none" xmlns="http://www.w3.org/2000/svg">
<path d="M12.9119 174V43.0909H98.054V62.9702H36.6264V98.5099H93.6435V118.389H36.6264V154.121H98.5653V174H12.9119ZM164.052 175.918C154.251 175.918 145.835 173.766 138.803 169.462C131.815 165.158 126.424 159.213 122.631 151.628C118.881 144 117.006 135.222 117.006 125.293C117.006 115.321 118.924 106.521 122.759 98.8935C126.594 91.223 132.006 85.2571 138.995 80.9957C146.026 76.6918 154.336 74.5398 163.924 74.5398C171.893 74.5398 178.945 76.0099 185.082 78.9503C191.261 81.848 196.183 85.9602 199.847 91.2869C203.512 96.571 205.6 102.75 206.112 109.824H183.995C183.1 105.094 180.969 101.152 177.603 97.9986C174.279 94.8026 169.826 93.2045 164.244 93.2045C159.513 93.2045 155.359 94.483 151.779 97.0398C148.2 99.554 145.408 103.176 143.406 107.906C141.445 112.636 140.465 118.304 140.465 124.909C140.465 131.599 141.445 137.352 143.406 142.168C145.366 146.94 148.114 150.626 151.651 153.226C155.231 155.783 159.428 157.061 164.244 157.061C167.653 157.061 170.7 156.422 173.384 155.143C176.112 153.822 178.391 151.926 180.224 149.455C182.056 146.983 183.313 143.979 183.995 140.442H206.112C205.558 147.388 203.512 153.545 199.975 158.915C196.438 164.241 191.623 168.418 185.529 171.443C179.435 174.426 172.276 175.918 164.052 175.918ZM267.939 175.918C258.35 175.918 250.041 173.808 243.01 169.589C235.978 165.371 230.524 159.469 226.646 151.884C222.811 144.298 220.893 135.435 220.893 125.293C220.893 115.151 222.811 106.266 226.646 98.6378C230.524 91.0099 235.978 85.0866 243.01 80.8679C250.041 76.6491 258.35 74.5398 267.939 74.5398C277.527 74.5398 285.836 76.6491 292.868 80.8679C299.899 85.0866 305.332 91.0099 309.167 98.6378C313.045 106.266 314.984 115.151 314.984 125.293C314.984 135.435 313.045 144.298 309.167 151.884C305.332 159.469 299.899 165.371 292.868 169.589C285.836 173.808 277.527 175.918 267.939 175.918ZM268.066 157.381C273.265 157.381 277.612 155.953 281.106 153.098C284.6 150.2 287.2 146.322 288.904 141.464C290.652 136.607 291.525 131.195 291.525 125.229C291.525 119.22 290.652 113.787 288.904 108.929C287.2 104.028 284.6 100.129 281.106 97.2315C277.612 94.3338 273.265 92.8849 268.066 92.8849C262.74 92.8849 258.308 94.3338 254.771 97.2315C251.277 100.129 248.656 104.028 246.909 108.929C245.204 113.787 244.352 119.22 244.352 125.229C244.352 131.195 245.204 136.607 246.909 141.464C248.656 146.322 251.277 150.2 254.771 153.098C258.308 155.953 262.74 157.381 268.066 157.381Z" fill="white"/>
<path d="M7.15909 236.97V217.091H111.605V236.97H71.1435V348H47.6207V236.97H7.15909ZM159.945 349.918C150.101 349.918 141.6 347.872 134.441 343.781C127.324 339.648 121.848 333.81 118.013 326.267C114.178 318.682 112.26 309.754 112.26 299.484C112.26 289.385 114.178 280.521 118.013 272.893C121.891 265.223 127.303 259.257 134.249 254.996C141.195 250.692 149.355 248.54 158.73 248.54C164.782 248.54 170.492 249.52 175.861 251.48C181.273 253.398 186.046 256.381 190.179 260.429C194.355 264.477 197.637 269.634 200.023 275.898C202.409 282.119 203.603 289.534 203.603 298.142V305.237H123.127V289.641H181.422C181.38 285.209 180.421 281.267 178.546 277.815C176.671 274.321 174.05 271.572 170.684 269.57C167.36 267.567 163.482 266.565 159.05 266.565C154.32 266.565 150.165 267.716 146.586 270.017C143.006 272.276 140.215 275.259 138.212 278.966C136.252 282.631 135.25 286.658 135.208 291.047V304.662C135.208 310.372 136.252 315.273 138.34 319.364C140.428 323.412 143.347 326.523 147.097 328.696C150.847 330.827 155.236 331.892 160.265 331.892C163.631 331.892 166.678 331.423 169.405 330.486C172.132 329.506 174.498 328.078 176.5 326.203C178.503 324.328 180.016 322.006 181.039 319.236L202.644 321.665C201.28 327.375 198.681 332.361 194.846 336.622C191.053 340.841 186.195 344.122 180.272 346.466C174.348 348.767 167.573 349.918 159.945 349.918ZM266.005 349.918C256.204 349.918 247.788 347.766 240.756 343.462C233.768 339.158 228.377 333.213 224.585 325.628C220.835 318 218.96 309.222 218.96 299.293C218.96 289.321 220.877 280.521 224.712 272.893C228.548 265.223 233.96 259.257 240.948 254.996C247.979 250.692 256.289 248.54 265.877 248.54C273.846 248.54 280.898 250.01 287.035 252.95C293.214 255.848 298.136 259.96 301.8 265.287C305.465 270.571 307.553 276.75 308.065 283.824H285.948C285.053 279.094 282.923 275.152 279.556 271.999C276.232 268.803 271.779 267.205 266.197 267.205C261.467 267.205 257.312 268.483 253.732 271.04C250.153 273.554 247.362 277.176 245.359 281.906C243.398 286.636 242.418 292.304 242.418 298.909C242.418 305.599 243.398 311.352 245.359 316.168C247.319 320.94 250.067 324.626 253.604 327.226C257.184 329.783 261.381 331.061 266.197 331.061C269.606 331.061 272.653 330.422 275.337 329.143C278.065 327.822 280.344 325.926 282.177 323.455C284.009 320.983 285.266 317.979 285.948 314.442H308.065C307.511 321.388 305.465 327.545 301.928 332.915C298.391 338.241 293.576 342.418 287.482 345.443C281.388 348.426 274.229 349.918 266.005 349.918ZM350.204 290.472V348H327.065V217.091H349.693V266.501H350.843C353.145 260.962 356.703 256.594 361.518 253.398C366.376 250.159 372.555 248.54 380.055 248.54C386.873 248.54 392.818 249.967 397.889 252.822C402.96 255.678 406.88 259.854 409.65 265.351C412.463 270.848 413.869 277.56 413.869 285.486V348H390.73V289.065C390.73 282.46 389.025 277.325 385.616 273.661C382.25 269.953 377.52 268.099 371.426 268.099C367.335 268.099 363.67 268.994 360.431 270.784C357.235 272.531 354.721 275.067 352.889 278.391C351.099 281.714 350.204 285.741 350.204 290.472Z" fill="white"/>
</svg>
